<svg width="137" height="60" viewBox="0 0 137 60" fill="none" xmlns="http://www.w3.org/2000/svg">
<path d="M0 26.8855H19.7798V33.4944H14.9847V31.8647H6.63322V37.9437H14.9847V42.9528H6.63322V48.9818H14.9847V47.3521H19.7798V54.011H1.62834V31.8647H0V26.8855Z" fill="#25408F"/>
<path d="M41.8772 54.9508H43.4556V37.8137H41.8772V32.8145H48.4305V33.8044C50.0688 32.8745 51.7371 32.4146 53.4154 32.4146H53.785C55.4234 32.5246 56.8819 33.0745 58.1506 34.0743C59.2794 34.9842 60.1286 36.174 60.688 37.6537C61.1675 38.9035 61.4072 40.3033 61.4072 41.843V42.213C61.3773 43.3028 61.2374 44.3426 61.0077 45.3324C60.668 46.7222 60.1286 47.942 59.3993 49.0118C58.3304 50.5516 56.9218 51.7414 55.1437 52.5812C53.2156 53.5111 50.9779 54.001 48.4405 54.041V60H41.8872V54.9608L41.8772 54.9508ZM48.4305 49.0418C49.6992 48.9718 50.858 48.7719 51.897 48.4419C52.7461 48.172 53.4654 47.812 54.0548 47.3721C55.0537 46.6522 55.733 45.6624 56.0827 44.4126C56.2525 43.7827 56.3424 43.0928 56.3424 42.3529C56.3424 42.193 56.3424 42.043 56.3224 41.883C56.2625 40.3933 55.803 39.2835 54.9439 38.5436C54.3045 38.0137 53.5753 37.7537 52.7561 37.7537C52.2666 37.7537 51.7571 37.8537 51.1977 38.0337C50.0588 38.4136 49.1298 39.1135 48.4105 40.1433V49.0418H48.4305Z" fill="#25408F"/>
<path d="M63.4751 49.0318H65.1035V37.8237H63.4751V32.8345H70.0684V34.0143C71.6468 33.1145 73.3251 32.5946 75.1033 32.4646C75.373 32.4446 75.6427 32.4346 75.8924 32.4346C77.1412 32.4346 78.25 32.6646 79.219 33.1245L76.5018 37.8337C76.0723 37.5937 75.5628 37.4638 74.9634 37.4638C74.6937 37.4638 74.414 37.4838 74.1143 37.5337C73.355 37.6637 72.5858 37.9337 71.8466 38.3536C71.0973 38.7735 70.5079 39.2835 70.0684 39.8934V54.021H63.4751V49.0318Z" fill="#25408F"/>
<path d="M90.1479 32.4146C91.5864 32.4146 92.985 32.7045 94.3336 33.2745C95.6822 33.8444 96.841 34.7242 97.8001 35.884C98.6991 36.9838 99.3585 38.3636 99.788 39.9933C100.048 40.9932 100.168 42.083 100.168 43.2728C100.168 44.0527 100.118 44.8925 99.9978 45.7724H85.5026C85.9721 46.8622 86.7114 47.762 87.7403 48.4519C88.7693 49.1418 89.8981 49.4818 91.1369 49.4818C93.2347 49.4818 94.903 48.6219 96.1418 46.9122L98.839 51.5014C96.6612 53.4511 94.0938 54.4209 91.1369 54.4209C89.5185 54.4209 88.0101 54.111 86.6015 53.5111C85.183 52.9012 83.9642 52.0613 82.9452 51.0115C81.9762 50.0317 81.207 48.8919 80.6476 47.5921C80.0882 46.3023 79.8084 44.9125 79.8084 43.4328C79.8084 40.9232 80.5777 38.6436 82.0961 36.5939C83.0252 35.3541 84.184 34.3543 85.5726 33.5844C86.9511 32.8145 88.4796 32.4346 90.1379 32.4346L90.1479 32.4146ZM85.5026 41.0532H95.0828C94.8031 39.9034 94.3136 39.0235 93.6043 38.4036C92.7752 37.7137 91.6064 37.3638 90.0879 37.3638C88.9891 37.3638 88.03 37.6737 87.2309 38.2936C86.4117 38.9435 85.8423 39.8634 85.5026 41.0532Z" fill="#25408F"/>
<path d="M112.825 49.1418C113.144 48.9418 113.304 48.6019 113.304 48.142C113.294 47.7121 113.015 47.3121 112.485 46.9422C111.946 46.5722 111.506 46.2923 111.166 46.1023C110.407 45.6824 109.638 45.2725 108.889 44.8925C108.139 44.5126 107.37 44.1027 106.611 43.6727C105.712 43.1628 104.973 42.5629 104.403 41.873C103.614 40.9332 103.225 39.8934 103.225 38.7535V38.5036C103.264 37.3938 103.554 36.4339 104.074 35.6141C104.593 34.7942 105.272 34.1243 106.102 33.6044C107.3 32.8745 108.679 32.4846 110.237 32.4246H110.637C112.075 32.4246 113.434 32.6346 114.713 33.0345C115.562 33.3045 116.641 33.7644 117.959 34.4243V38.8435H113.044V37.4638C112.565 37.2538 111.976 37.1238 111.276 37.0438C111.136 37.0338 110.987 37.0238 110.847 37.0238C110.307 37.0238 109.778 37.1238 109.268 37.3238C108.919 37.4538 108.679 37.6537 108.519 37.9337C108.469 38.0337 108.439 38.1436 108.439 38.2436C108.439 38.4236 108.529 38.6236 108.709 38.8135C109.178 39.3434 110.347 40.0533 112.215 40.9532C114.083 41.853 115.582 42.7929 116.681 43.7927C117.969 44.9825 118.619 46.4023 118.619 48.072C118.619 48.212 118.619 48.3619 118.599 48.5219C118.499 49.9117 118.059 51.0715 117.28 52.0013C116.331 53.1211 114.982 53.841 113.234 54.171C112.465 54.3209 111.666 54.4009 110.847 54.4009C110.028 54.4009 109.198 54.3209 108.339 54.171C106.251 53.811 104.273 52.9512 102.395 51.5914L105.123 47.4021C106.271 48.272 107.41 48.8819 108.549 49.2518C109.308 49.5018 110.038 49.6217 110.747 49.6217C111.076 49.6217 111.406 49.5917 111.736 49.5417C112.125 49.4818 112.475 49.3418 112.795 49.1418H112.825Z" fill="#25408F"/>
<path d="M131.196 49.1418C131.516 48.9418 131.665 48.6019 131.665 48.142C131.655 47.7121 131.376 47.3121 130.846 46.9422C130.307 46.5722 129.867 46.2923 129.528 46.1023C128.768 45.6824 127.999 45.2725 127.25 44.8925C126.491 44.5126 125.732 44.1027 124.972 43.6727C124.073 43.1628 123.334 42.5629 122.755 41.873C121.975 40.9332 121.576 39.8934 121.576 38.7535V38.5036C121.616 37.3938 121.895 36.4339 122.425 35.6141C122.954 34.7942 123.624 34.1243 124.453 33.6044C125.652 32.8745 127.03 32.4846 128.589 32.4246H128.988C130.427 32.4246 131.785 32.6346 133.064 33.0345C133.913 33.3045 134.992 33.7644 136.321 34.4243V38.8435H131.406V37.4638C130.926 37.2538 130.327 37.1238 129.638 37.0438C129.498 37.0338 129.348 37.0238 129.208 37.0238C128.669 37.0238 128.139 37.1238 127.63 37.3238C127.29 37.4538 127.04 37.6537 126.88 37.9337C126.83 38.0337 126.8 38.1436 126.8 38.2436C126.8 38.4236 126.88 38.6236 127.07 38.8135C127.53 39.3434 128.708 40.0533 130.577 40.9532C132.455 41.853 133.943 42.7929 135.042 43.7927C136.341 44.9825 136.98 46.4023 136.98 48.072C136.98 48.212 136.98 48.3619 136.97 48.5219C136.87 49.9117 136.441 51.0715 135.651 52.0013C134.702 53.1211 133.354 53.841 131.616 54.171C130.846 54.3209 130.047 54.4009 129.228 54.4009C128.409 54.4009 127.58 54.3209 126.721 54.171C124.633 53.811 122.655 52.9512 120.787 51.5914L123.514 47.4021C124.653 48.272 125.801 48.8819 126.94 49.2518C127.7 49.5018 128.429 49.6217 129.138 49.6217C129.468 49.6217 129.797 49.5917 130.127 49.5417C130.517 49.4818 130.876 49.3418 131.186 49.1418H131.196Z" fill="#25408F"/>
<path d="M33.6656 43.6127L30.6587 39.0835L34.8244 32.7345H39.0301V37.8737H37.4517L33.6556 43.6127H33.6656ZM26.4729 54.5209H22.2772V49.4018H23.8456L27.6517 43.6227L30.6487 48.172L26.463 54.5209H26.4729Z" fill="#25408F"/>
<path d="M33.1661 0H55.0038V7.29878H49.7092V5.49908H40.4886V12.218H49.7092V17.737H40.4886V24.4059H49.7092V22.6062H55.0038V29.955H34.9643V5.49908H33.1661V0Z" fill="#C4161C"/>
<path d="M70.8576 11.6681C70.458 11.5981 70.0484 11.5681 69.6588 11.5681C68.0804 11.5681 66.6519 12.098 65.3632 13.1578C63.7548 14.4976 62.9557 16.1973 62.9557 18.257C62.9557 20.9365 64.1644 22.9062 66.582 24.166C67.6609 24.7359 68.7298 25.0258 69.7787 25.0258C71.0774 25.0258 72.3661 24.5959 73.6148 23.726C73.9544 23.4861 74.2541 23.2461 74.4939 22.9962C74.7436 22.7462 75.0034 22.4563 75.2831 22.1563L78.25 27.1755C77.8504 27.4954 77.4908 27.7754 77.1711 28.0253C76.8515 28.2753 76.4619 28.5152 75.9923 28.7752C74.0543 29.875 71.9864 30.4149 69.7987 30.4149C69.2492 30.4149 68.6998 30.3849 68.1404 30.3149C65.3232 29.975 62.9057 28.8252 60.8878 26.8755C58.4303 24.5159 57.2015 21.6564 57.2015 18.3169L57.2215 18.277C57.2215 14.9275 58.4403 12.058 60.8878 9.69838C62.7958 7.84869 65.0635 6.71888 67.7208 6.30895C68.4201 6.19897 69.1294 6.13898 69.8186 6.13898C71.6967 6.13898 73.4949 6.53891 75.2231 7.34878C75.6627 7.55874 75.9824 7.73871 76.2121 7.88869C76.4419 8.03866 76.6816 8.21863 76.9314 8.4286V13.2778H71.477V11.808L70.8476 11.6881L70.8576 11.6681Z" fill="#C4161C"/>
<path d="M92.965 6.11898C96.4215 6.11898 99.3784 7.30878 101.826 9.67839C104.263 12.048 105.492 14.9075 105.492 18.257C105.492 21.6064 104.273 24.4759 101.826 26.8455C99.3784 29.2151 96.4215 30.3949 92.965 30.3949C89.5085 30.3949 86.5615 29.2151 84.114 26.8455C81.6765 24.4759 80.4578 21.6164 80.4578 18.257C80.4578 14.8975 81.6765 12.048 84.114 9.67839C86.5615 7.30878 89.5085 6.11898 92.965 6.11898ZM92.965 11.5781C91.1568 11.5781 89.5785 12.218 88.2298 13.5077C86.8812 14.7975 86.2119 16.3773 86.2119 18.247C86.2119 20.1166 86.8912 21.7164 88.2298 23.0062C89.5785 24.2959 91.1568 24.9458 92.965 24.9458C94.7731 24.9458 96.3715 24.2959 97.7201 23.0062C99.0688 21.7164 99.7481 20.1266 99.7481 18.247C99.7481 16.3673 99.0688 14.7975 97.7201 13.5077C96.3715 12.218 94.7831 11.5781 92.965 11.5781Z" fill="#C4161C"/>
<path d="M136.99 29.955H131.486V14.0577C131.486 12.9878 131.096 12.3179 130.307 12.068C130.107 12.018 129.897 11.988 129.697 11.988C129.138 11.988 128.539 12.178 127.899 12.5579C127.17 12.9878 126.541 13.5877 126.001 14.3576V29.965H120.487V14.1176C120.487 12.9978 120.097 12.3179 119.318 12.058C119.118 11.998 118.918 11.978 118.719 11.978C118.169 11.978 117.57 12.178 116.901 12.5779C116.161 13.0378 115.522 13.6377 115.002 14.3976V29.965H107.71V24.4659H109.488V12.078H107.71V6.56891H115.002V7.91868C116.071 7.30878 117.09 6.83886 118.049 6.51891C118.809 6.27895 119.538 6.15897 120.217 6.15897C120.737 6.15897 121.246 6.22896 121.726 6.37894C122.814 6.71888 123.823 7.48875 124.753 8.69855C126.431 7.42876 128.269 6.6189 130.267 6.26896C130.706 6.19897 131.146 6.16897 131.566 6.16897C132.075 6.16897 132.575 6.20897 133.074 6.30895C133.963 6.48892 134.732 6.90885 135.382 7.55874C136.461 8.68855 137 10.3983 137 12.6979V29.975L136.99 29.955Z" fill="#C4161C"/>
<path d="M27.6617 43.6127L23.8656 37.8737H22.2872V32.7345H26.4929L30.6687 39.0835L27.6617 43.6127ZM39.0401 54.5209H34.8444L30.6587 48.172L33.6556 43.6227L37.4617 49.4018H39.0201V54.5209H39.0401Z" fill="#C4161C"/>
<path d="M30.6587 48.172L27.6617 43.6227V43.6127L30.6587 39.0835L33.6656 43.6127L33.6556 43.6227L30.6587 48.172Z" fill="#1A1F2A"/>
</svg>
